<svg fill="none" xmlns="http://www.w3.org/2000/svg">
<g opacity="0.05">
    <path d="M354.113 419.537C354.115 419.765 353.87 419.909 353.672 419.797L70.9768 260.451C70.7789 260.339 70.7759 260.055 70.9715 259.94L350.318 94.7912C350.513 94.6756 350.761 94.8151 350.763 95.0422L354.113 419.537Z" fill="white" stroke="white" stroke-width="0.590278" />
    <path d="M510.726 255.775L274.359 377.518C274.27 377.563 274.164 377.561 274.077 377.511L70.3753 261.008C70.1777 260.895 70.177 260.611 70.3741 260.497L274.088 142.706C274.172 142.657 274.275 142.653 274.362 142.695L510.718 255.246C510.939 255.351 510.944 255.663 510.726 255.775Z" fill="white" stroke="white" stroke-width="0.590278" />
    <path d="M419.747 162.616C419.974 162.614 420.118 162.858 420.007 163.056L260.66 445.752C260.548 445.95 260.264 445.953 260.149 445.757L95.0005 166.411C94.8848 166.215 95.0243 165.968 95.2515 165.966L419.747 162.616Z" fill="white" stroke="white" stroke-width="0.590278" />
    <path d="M255.38 6.00206L377.123 242.37C377.169 242.459 377.166 242.565 377.117 242.651L260.614 446.353C260.501 446.551 260.216 446.551 260.102 446.354L142.311 242.641C142.262 242.557 142.258 242.454 142.3 242.366L254.852 6.01032C254.957 5.78984 255.269 5.78498 255.38 6.00206Z" fill="white" stroke="white" stroke-width="0.590278" />
    <path d="M162.825 97.5857C162.822 97.3585 163.067 97.214 163.265 97.3255L445.96 256.672C446.158 256.784 446.161 257.068 445.966 257.183L166.619 422.332C166.424 422.447 166.176 422.308 166.174 422.081L162.825 97.5857Z" fill="white" stroke="white" stroke-width="0.590278" />
    <path d="M6.21067 261.348L242.578 139.605C242.667 139.56 242.773 139.562 242.86 139.612L446.562 256.115C446.759 256.228 446.76 256.512 446.563 256.626L242.849 374.417C242.765 374.466 242.662 374.47 242.575 374.428L6.21894 261.877C5.99845 261.772 5.99359 261.46 6.21067 261.348Z" fill="white" stroke="white" stroke-width="0.590278" />
    <path d="M97.1907 354.507C96.9635 354.509 96.8189 354.265 96.9305 354.067L256.277 71.371C256.389 71.1731 256.673 71.1702 256.788 71.3657L421.937 350.712C422.052 350.908 421.913 351.155 421.686 351.157L97.1907 354.507Z" fill="white" stroke="white" stroke-width="0.590278" />
    <path d="M261.558 511.121L139.815 274.754C139.769 274.665 139.772 274.559 139.821 274.472L256.324 70.7703C256.437 70.5727 256.722 70.5721 256.836 70.7691L374.627 274.483C374.676 274.567 374.68 274.67 374.638 274.757L262.086 511.113C261.981 511.334 261.669 511.339 261.558 511.121Z" fill="white" stroke="white" stroke-width="0.590278" />
  </g>
</svg>

