<svg width="196" height="195" viewBox="0 0 196 195" fill="none" xmlns="http://www.w3.org/2000/svg">
<g opacity="0.05">
<path d="M133.841 158.147L27.4148 98.1574C27.3403 98.1154 27.3392 98.0085 27.4128 97.965L132.578 35.7915C132.652 35.748 132.745 35.8005 132.746 35.886L134.007 158.049C134.008 158.134 133.916 158.189 133.841 158.147Z" fill="white" stroke="white" stroke-width="0.222222"/>
<path d="M192.968 96.397L103.982 142.229C103.949 142.247 103.909 142.246 103.876 142.227L27.1883 98.3671C27.1139 98.3245 27.1137 98.2174 27.1879 98.1744L103.88 53.8297C103.912 53.8114 103.95 53.8098 103.983 53.8256L192.965 96.1979C193.048 96.2374 193.049 96.3549 192.968 96.397Z" fill="white" stroke="white" stroke-width="0.222222"/>
<path d="M158.814 61.4911L98.8249 167.918C98.7829 167.992 98.676 167.993 98.6325 167.92L36.459 62.7541C36.4155 62.6804 36.468 62.5873 36.5535 62.5864L158.716 61.3254C158.802 61.3245 158.856 61.4166 158.814 61.4911Z" fill="white" stroke="white" stroke-width="0.222222"/>
<path d="M96.8373 2.36448L142.67 91.3499C142.687 91.3834 142.686 91.4233 142.667 91.456L98.8075 168.144C98.7649 168.218 98.6577 168.218 98.6148 168.144L54.2701 91.452C54.2517 91.4203 54.2502 91.3816 54.2659 91.3486L96.6382 2.36759C96.6778 2.28459 96.7952 2.28275 96.8373 2.36448Z" fill="white" stroke="white" stroke-width="0.222222"/>
<path d="M62.1584 36.7458L168.585 96.7351C168.66 96.7771 168.661 96.884 168.587 96.9276L63.4214 159.101C63.3478 159.145 63.2547 159.092 63.2538 159.007L61.9928 36.8437C61.9919 36.7582 62.0839 36.7038 62.1584 36.7458Z" fill="white" stroke="white" stroke-width="0.222222"/>
<path d="M3.03227 98.4946L92.0177 52.6622C92.0512 52.645 92.0911 52.6458 92.1238 52.6645L168.812 96.5245C168.886 96.567 168.886 96.6742 168.812 96.7171L92.1198 141.062C92.0881 141.08 92.0494 141.082 92.0164 141.066L3.03537 98.6937C2.95237 98.6542 2.95053 98.5367 3.03227 98.4946Z" fill="white" stroke="white" stroke-width="0.222222"/>
<path d="M37.1856 133.401L97.1749 26.9739C97.2169 26.8993 97.3239 26.8983 97.3674 26.9719L159.541 132.138C159.584 132.211 159.532 132.304 159.446 132.305L37.2835 133.566C37.198 133.567 37.1436 133.475 37.1856 133.401Z" fill="white" stroke="white" stroke-width="0.222222"/>
<path d="M99.1628 192.527L53.3304 103.542C53.3132 103.508 53.3141 103.468 53.3327 103.436L97.1927 26.7479C97.2353 26.6735 97.3424 26.6732 97.3853 26.7474L141.73 103.44C141.748 103.471 141.75 103.51 141.734 103.543L99.3619 192.524C99.3224 192.607 99.2049 192.609 99.1628 192.527Z" fill="white" stroke="white" stroke-width="0.222222"/>
</g>
</svg>
