<svg aria-hidden="true" style="position: absolute; width: 0; height: 0; overflow: hidden;" version="1.1" xmlns="http://www.w3.org/2000/svg" xmlns:xlink="http://www.w3.org/1999/xlink">
<defs>
<symbol id="icon-gamepad" viewBox="0 0 31 32">
<path fill="none" stroke="#fff" style="stroke: var(--color1, #fff)" stroke-linejoin="miter" stroke-linecap="round" stroke-miterlimit="4" stroke-width="1.0608" d="M15.606 28.773c1.16 0 1.657 0 2.32 0.663 1.856 1.856 5.47 2.155 6.63 1.657 11.271-4.807 3.978-15.58 0-15.58h-7.672M16.884 15.514h-1.823c-0.183 0-0.332-0.148-0.332-0.332v-1.326c0-0.183 0.148-0.332 0.332-0.332h0.746M16.884 15.514v-1.657c0-0.183-0.148-0.332-0.331-0.332h-0.746M15.807 13.525c0-2.32 0.615-3.481-4.392-3.149-1.823 0-1.658-2.983 0-2.983 3.353 0 7.254 0 8.785 0 0.994 0 2.155-3.149 0-3.149h-2.983c-0.497 0-1.249-0.066-1.409-3.646"></path>
<path fill="none" stroke="#fff" style="stroke: var(--color1, #fff)" stroke-linejoin="miter" stroke-linecap="round" stroke-miterlimit="4" stroke-width="1.0608" d="M15.606 15.514h-8.95c-3.978 0-11.271 10.774 0 15.58 1.16 0.497 4.773 0.199 6.63-1.657 0.663-0.663 1.16-0.663 2.32-0.663"></path>
<path fill="#86e0d1" style="fill: var(--color2, #86e0d1)" d="M23.182 28.11c0.915 0 1.657-0.742 1.657-1.657s-0.742-1.657-1.657-1.657c-0.915 0-1.657 0.742-1.657 1.657s0.742 1.657 1.657 1.657zM28.486 23.138c0 0.915-0.742 1.657-1.657 1.657s-1.657-0.742-1.657-1.657c0-0.915 0.742-1.657 1.657-1.657s1.657 0.742 1.657 1.657zM24.84 19.823c0 0.915-0.742 1.657-1.657 1.657s-1.657-0.742-1.657-1.657c0-0.915 0.742-1.657 1.657-1.657s1.657 0.742 1.657 1.657zM21.193 23.138c0 0.915-0.742 1.657-1.657 1.657s-1.657-0.742-1.657-1.657c0-0.915 0.742-1.657 1.657-1.657s1.657 0.742 1.657 1.657zM9.923 21.481c0 0.183 0.148 0.331 0.332 0.331h1.989c0.183 0 0.332 0.148 0.332 0.331v2.32c0 0.183-0.148 0.331-0.332 0.331h-1.989c-0.183 0-0.332 0.148-0.332 0.331v1.989c0 0.183-0.148 0.331-0.332 0.331h-2.32c-0.183 0-0.332-0.148-0.332-0.331v-1.989c0-0.183-0.148-0.331-0.332-0.331h-1.989c-0.183 0-0.332-0.148-0.332-0.331v-2.32c0-0.183 0.148-0.331 0.332-0.331h1.989c0.183 0 0.332-0.148 0.332-0.331v-1.989c0-0.183 0.148-0.331 0.332-0.331h2.32c0.183 0 0.332 0.148 0.332 0.331v1.989z"></path>
<path fill="#fff" style="fill: var(--color1, #fff)" d="M6.939 27.116v0zM6.939 25.127v0zM6.939 21.481v0zM6.939 19.492v0zM25.171 26.453c0 1.098-0.891 1.989-1.989 1.989v-0.663c0.732 0 1.326-0.594 1.326-1.326h0.663zM23.182 24.464c1.098 0 1.989 0.891 1.989 1.989h-0.663c0-0.732-0.594-1.326-1.326-1.326v-0.663zM21.193 26.453c0-1.098 0.891-1.989 1.989-1.989v0.663c-0.732 0-1.326 0.594-1.326 1.326h-0.663zM23.182 28.442c-1.098 0-1.989-0.891-1.989-1.989h0.663c0 0.732 0.594 1.326 1.326 1.326v0.663zM26.829 24.464c0.732 0 1.326-0.594 1.326-1.326h0.663c0 1.098-0.891 1.989-1.989 1.989v-0.663zM25.503 23.138c0 0.732 0.594 1.326 1.326 1.326v0.663c-1.098 0-1.989-0.891-1.989-1.989h0.663zM26.829 21.812c-0.732 0-1.326 0.594-1.326 1.326h-0.663c0-1.098 0.891-1.989 1.989-1.989v0.663zM28.155 23.138c0-0.732-0.594-1.326-1.326-1.326v-0.663c1.098 0 1.989 0.891 1.989 1.989h-0.663zM23.182 21.149c0.732 0 1.326-0.594 1.326-1.326h0.663c0 1.098-0.891 1.989-1.989 1.989v-0.663zM21.856 19.823c0 0.732 0.594 1.326 1.326 1.326v0.663c-1.098 0-1.989-0.891-1.989-1.989h0.663zM23.182 18.497c-0.732 0-1.326 0.594-1.326 1.326h-0.663c0-1.098 0.891-1.989 1.989-1.989v0.663zM24.508 19.823c0-0.732-0.594-1.326-1.326-1.326v-0.663c1.098 0 1.989 0.891 1.989 1.989h-0.663zM19.536 24.464c0.732 0 1.326-0.594 1.326-1.326h0.663c0 1.098-0.891 1.989-1.989 1.989v-0.663zM18.21 23.138c0 0.732 0.594 1.326 1.326 1.326v0.663c-1.098 0-1.989-0.891-1.989-1.989h0.663zM19.536 21.812c-0.732 0-1.326 0.594-1.326 1.326h-0.663c0-1.098 0.891-1.989 1.989-1.989v0.663zM20.862 23.138c0-0.732-0.594-1.326-1.326-1.326v-0.663c1.098 0 1.989 0.891 1.989 1.989h-0.663zM10.254 22.144c-0.366 0-0.663-0.297-0.663-0.663h0.663v0.663zM12.243 22.144h-1.989v-0.663h1.989v0.663zM12.243 22.144v-0.663c0.366 0 0.663 0.297 0.663 0.663h-0.663zM12.243 24.464v-2.32h0.663v2.32h-0.663zM12.243 24.464h0.663c0 0.366-0.297 0.663-0.663 0.663v-0.663zM10.254 24.464h1.989v0.663h-1.989v-0.663zM9.591 25.127c0-0.366 0.297-0.663 0.663-0.663v0.663h-0.663zM9.591 27.116v-1.989h0.663v1.989h-0.663zM9.591 27.116h0.663c0 0.366-0.297 0.663-0.663 0.663v-0.663zM7.271 27.116h2.32v0.663h-2.32v-0.663zM7.271 27.116v0.663c-0.366 0-0.663-0.297-0.663-0.663h0.663zM7.271 25.127v1.989h-0.663v-1.989h0.663zM6.608 24.464c0.366 0 0.663 0.297 0.663 0.663h-0.663v-0.663zM4.619 24.464h1.989v0.663h-1.989v-0.663zM4.619 24.464v0 0.663c-0.366 0-0.663-0.297-0.663-0.663h0.663zM4.619 22.144v2.32h-0.663v-2.32h0.663zM4.619 22.144h-0.663c0-0.366 0.297-0.663 0.663-0.663v0.663zM6.608 22.144h-1.989v-0.663h1.989v0.663zM7.271 21.481c0 0.366-0.297 0.663-0.663 0.663v-0.663h0.663zM7.271 19.492v1.989h-0.663v-1.989h0.663zM7.271 19.492h-0.663c0-0.366 0.297-0.663 0.663-0.663v0.663zM9.591 19.492h-2.32v-0.663h2.32v0.663zM9.591 19.492v-0.663c0.366 0 0.663 0.297 0.663 0.663h-0.663zM9.591 21.481v-1.989h0.663v1.989h-0.663z"></path>
</symbol>
<symbol id="icon-cup" viewBox="0 0 26 32">
<path fill="none" stroke="#fff" style="stroke: var(--color1, #fff)" stroke-linejoin="round" stroke-linecap="round" stroke-miterlimit="4" stroke-width="1.2" d="M13.143 0.7h7.5c0.045 0.686 0.059 1.499 0.028 2.4M18.243 14.8c-1.139 2.263-3.9 5.1-5.1 5.1v3.3h6.9v4.5M18.243 14.8c1.843-3.662 2.319-8.526 2.428-11.7M18.243 14.8c5.282-3.3 12.3-11.1 2.428-11.7M20.043 27.7h1.5v3.6h-8.4M20.043 27.7h-6.9"></path>
<path fill="none" stroke="#fff" style="stroke: var(--color1, #fff)" stroke-linejoin="round" stroke-linecap="round" stroke-miterlimit="4" stroke-width="1.2" d="M13.143 0.7h-7.5c-0.045 0.686-0.059 1.499-0.028 2.4M8.043 14.8c1.139 2.263 3.9 5.1 5.1 5.1v3.3h-6.9v4.5M8.043 14.8c-1.843-3.662-2.319-8.526-2.428-11.7M8.043 14.8c-5.282-3.3-12.3-11.1-2.428-11.7M6.243 27.7h-1.5v3.6h8.4M6.243 27.7h6.9"></path>
</symbol>
<symbol id="icon-tesseract" viewBox="0 0 32 32">
<path fill="none" stroke="#fff" style="stroke: var(--color1, #fff)" stroke-linejoin="miter" stroke-linecap="round" stroke-miterlimit="4" stroke-width="1" d="M0.5 4.75h31M2.5 2.75h0.75M25.75 2.75h3.75M8 2.75h0.75M5.25 2.75h0.75"></path>
<path fill="none" stroke="#fff" style="stroke: var(--color1, #fff)" stroke-linejoin="miter" stroke-linecap="butt" stroke-miterlimit="4" stroke-width="1" d="M2.5 0.5h27c1.105 0 2 0.895 2 2v27c0 1.105-0.895 2-2 2h-27c-1.105 0-2-0.895-2-2v-27c0-1.105 0.895-2 2-2z"></path>
<path fill="none" stroke="#fff" style="stroke: var(--color1, #fff)" stroke-linejoin="miter" stroke-linecap="butt" stroke-miterlimit="4" stroke-width="1" d="M23.25 7.25h5.75v5.75h-2.5v-2.25c0-0.552-0.448-1-1-1h-2.25v-2.5z"></path>
<path fill="none" stroke="#fff" style="stroke: var(--color1, #fff)" stroke-linejoin="miter" stroke-linecap="butt" stroke-miterlimit="4" stroke-width="1" d="M3 13.25v-6h5.75v2.75h-2.25c-0.552 0-1 0.448-1 1v2.25h-2.5z"></path>
<path fill="none" stroke="#fff" style="stroke: var(--color1, #fff)" stroke-linejoin="miter" stroke-linecap="butt" stroke-miterlimit="4" stroke-width="1" d="M8.875 28.875h-6v-5.75h2.75v2.25c0 0.552 0.448 1 1 1h2.25v2.5z"></path>
<path fill="none" stroke="#fff" style="stroke: var(--color1, #fff)" stroke-linejoin="miter" stroke-linecap="butt" stroke-miterlimit="4" stroke-width="1" d="M28.875 23v6h-5.75v-2.75h2.25c0.552 0 1-0.448 1-1v-2.25h2.5z"></path>
<path fill="none" stroke="#86e0d1" style="stroke: var(--color2, #86e0d1)" stroke-linejoin="miter" stroke-linecap="butt" stroke-miterlimit="4" stroke-width="1" d="M16 25.361v-6.83c0-0.175 0.091-0.337 0.241-0.427l6-3.643c0.333-0.202 0.759 0.038 0.759 0.427v6.83c0 0.175-0.091 0.337-0.241 0.427l-6 3.643c-0.333 0.202-0.759-0.038-0.759-0.427z"></path>
<path fill="none" stroke="#86e0d1" style="stroke: var(--color2, #86e0d1)" stroke-linejoin="miter" stroke-linecap="butt" stroke-miterlimit="4" stroke-width="1" d="M9.769 14.476l5.915 3.415c0.151 0.087 0.246 0.247 0.25 0.422l0.155 7.018c0.009 0.39-0.412 0.639-0.75 0.444l-5.915-3.415c-0.151-0.087-0.246-0.247-0.25-0.422l-0.155-7.018c-0.009-0.39 0.412-0.639 0.75-0.444z"></path>
<path fill="none" stroke="#86e0d1" style="stroke: var(--color2, #86e0d1)" stroke-linejoin="miter" stroke-linecap="butt" stroke-miterlimit="4" stroke-width="1" d="M9.769 13.681l5.915-3.415c0.151-0.087 0.337-0.089 0.49-0.005l6.155 3.375c0.342 0.187 0.347 0.677 0.010 0.871l-5.915 3.415c-0.151 0.087-0.337 0.089-0.49 0.005l-6.155-3.375c-0.342-0.187-0.347-0.677-0.010-0.871z"></path>
</symbol>
<symbol id="icon-helmet" viewBox="0 0 46 32">
<path fill="none" stroke="#fff" style="stroke: var(--color1, #fff)" stroke-linejoin="miter" stroke-linecap="round" stroke-miterlimit="4" stroke-width="1.3714" d="M27.6 4.457c2.060 0.328 4.929 1.4 7.543 3.551M41.657 25.029c0.486-8.582-2.748-13.922-6.514-17.021M41.657 25.029h-18.857M41.657 25.029c4.114 0 4.114 6.171 0 6.171-3.84 0-14.171 0-18.857 0M35.143 8.008v10.507M22.8 0.686h1.124c1.064 0 2.248 0.162 2.8 1.072 0.904 1.491 0.461 2.479 1.904 9.899"></path>
<path fill="none" stroke="#fff" style="stroke: var(--color1, #fff)" stroke-linejoin="miter" stroke-linecap="round" stroke-miterlimit="4" stroke-width="1.3714" d="M18 4.457c-2.060 0.328-4.93 1.4-7.543 3.551M3.943 25.029c-0.486-8.582 2.748-13.922 6.514-17.021M3.943 25.029h18.857M3.943 25.029c-4.114 0-4.114 6.171 0 6.171 3.84 0 14.171 0 18.857 0M10.457 8.008v10.507M22.8 0.686h-1.124c-1.065 0-2.249 0.162-2.8 1.072-0.904 1.491-0.461 2.479-1.904 9.899"></path>
<path fill="#86e0d1" style="fill: var(--color2, #86e0d1)" d="M29.44 20.37c0.067 0.167 0.101 0.343 0.101 0.527 0 0.167-0.084 0.343-0.251 0.527-0.151 0.184-0.41 0.276-0.779 0.276-0.352 0-0.611-0.193-0.778-0.578l-1.331-3.189h-7.006l-1.306 3.189c-0.167 0.385-0.435 0.578-0.804 0.578-0.352 0-0.611-0.092-0.778-0.276-0.151-0.184-0.226-0.36-0.226-0.527 0-0.184 0.033-0.36 0.1-0.527l5.223-12.38c0.234-0.569 0.636-0.854 1.205-0.854h0.201c0.552 0 0.954 0.285 1.206 0.854l5.223 12.38zM25.698 16.226l-2.787-6.705-2.787 6.705h5.575z"></path>
</symbol>
<symbol id="icon-about-us" viewBox="0 0 59 32">
<path fill="none" stroke="#fff" style="stroke: var(--color1, #fff)" stroke-linejoin="miter" stroke-linecap="round" stroke-miterlimit="4" stroke-width="0.7786" d="M51.958 16h6.852"></path>
<path fill="none" stroke="#fff" style="stroke: var(--color1, #fff)" stroke-linejoin="miter" stroke-linecap="round" stroke-miterlimit="4" stroke-width="0.7786" d="M0.389 15.922l47.572 0.078"></path>
<path fill="none" stroke="#fff" style="stroke: var(--color1, #fff)" stroke-linejoin="miter" stroke-linecap="round" stroke-miterlimit="4" stroke-width="0.7786" d="M0.389 23.786h32.857M37.139 23.786h21.645"></path>
<path fill="none" stroke="#fff" style="stroke: var(--color1, #fff)" stroke-linejoin="miter" stroke-linecap="round" stroke-miterlimit="4" stroke-width="0.7786" d="M0.389 0.428h58.394"></path>
<path fill="none" stroke="#fff" style="stroke: var(--color1, #fff)" stroke-linejoin="miter" stroke-linecap="round" stroke-miterlimit="4" stroke-width="0.7786" d="M0.389 31.572h58.394"></path>
<path fill="none" stroke="#fff" style="stroke: var(--color1, #fff)" stroke-linejoin="miter" stroke-linecap="round" stroke-miterlimit="4" stroke-width="0.7786" d="M0.389 8.221h23.513M27.796 8.221h31.027"></path>
</symbol>
<symbol id="icon-logo" viewBox="0 0 32 32">
<path fill="#d2f5ef" style="fill: var(--color1, #d2f5ef)" d="M15.729 4.72c0.12-0.208 0.421-0.208 0.541 0l9.634 16.686c0.12 0.208-0.030 0.469-0.271 0.469h-19.268c-0.241 0-0.391-0.26-0.271-0.469l9.634-16.686z"></path>
<path fill="#86e0d1" style="fill: var(--color2, #86e0d1)" d="M27.28 15.729c0.208 0.12 0.208 0.421 0 0.541l-16.686 9.634c-0.208 0.12-0.469-0.030-0.469-0.271v-19.268c0-0.241 0.26-0.391 0.469-0.271l16.686 9.634z"></path>
<path fill="#d2f5ef" style="fill: var(--color1, #d2f5ef)" d="M25.602 10.144c0.241 0 0.391 0.26 0.271 0.469l-9.602 16.632c-0.12 0.208-0.421 0.208-0.541 0l-9.602-16.632c-0.12-0.208 0.030-0.469 0.271-0.469h19.204z"></path>
<path fill="#86e0d1" style="fill: var(--color2, #86e0d1)" d="M21.388 6.127c0.208-0.12 0.469 0.030 0.469 0.271v19.204c0 0.241-0.26 0.391-0.469 0.271l-16.631-9.602c-0.208-0.12-0.208-0.421 0-0.541l16.631-9.602z"></path>
<path fill="#86e0d1" style="fill: var(--color2, #86e0d1)" d="M16.040 7.94l6.946 12.030h-13.891l6.946-12.030z"></path>
</symbol>
<symbol id="icon-logo-darkc" viewBox="0 0 32 32">
<path d="M15.729 4.72c0.12-0.208 0.421-0.208 0.541 0l9.634 16.686c0.12 0.208-0.030 0.469-0.271 0.469h-19.268c-0.241 0-0.391-0.26-0.271-0.469l9.634-16.686z"></path>
<path fill="#86e0d1" style="fill: var(--color2, #86e0d1)" d="M27.28 15.729c0.208 0.12 0.208 0.421 0 0.541l-16.686 9.634c-0.208 0.12-0.469-0.030-0.469-0.271v-19.268c0-0.241 0.26-0.391 0.469-0.271l16.686 9.634z"></path>
<path d="M25.602 10.144c0.241 0 0.391 0.26 0.271 0.469l-9.602 16.632c-0.12 0.208-0.421 0.208-0.541 0l-9.602-16.632c-0.12-0.208 0.030-0.469 0.271-0.469h19.204z"></path>
<path fill="#86e0d1" style="fill: var(--color2, #86e0d1)" d="M21.388 6.127c0.208-0.12 0.469 0.030 0.469 0.271v19.204c0 0.241-0.26 0.391-0.469 0.271l-16.631-9.602c-0.208-0.12-0.208-0.421 0-0.541l16.631-9.602z"></path>
<path fill="#86e0d1" style="fill: var(--color2, #86e0d1)" d="M16.040 7.94l6.946 12.030h-13.891l6.946-12.030z"></path>
</symbol>
<symbol id="icon-bird" viewBox="0 0 36 32">
<path fill="none" stroke="#86e0d1" style="stroke: var(--color1, #86e0d1)" stroke-linejoin="miter" stroke-linecap="round" stroke-miterlimit="4" stroke-width="1.0398" d="M17.937 13.601c0-4.159-0.364-12.413 6.239-12.413 4.046 0 5.745 3.108 6.304 6.466M17.937 13.601h8.383c-0.26 2.816-2.301 8.448-8.383 8.448s-8.253-5.632-8.578-8.448M17.937 13.601h-8.578M5.135 13.601h4.224M5.135 13.601h-4.419M5.135 13.601c0.18 4.018 2.606 11.631 10.658 12.376M30.48 7.655c0.353 2.122 0.321 4.258 0.26 5.946-0.13 3.574-2.693 10.872-10.983 12.219M30.48 7.655h4.549M19.757 25.821c-0.577 0.094-1.183 0.159-1.82 0.193-0.756 0.040-1.47 0.026-2.145-0.036M19.757 25.821v4.807M19.757 30.628h4.419M19.757 30.628h-3.964v-4.65"></path>
<path fill="#86e0d1" style="fill: var(--color1, #86e0d1)" d="M27.36 5.412c0 0.61-0.495 1.105-1.105 1.105s-1.105-0.495-1.105-1.105c0-0.61 0.495-1.105 1.105-1.105s1.105 0.495 1.105 1.105z"></path>
</symbol>
<symbol id="icon-pacman" viewBox="0 0 31 32">
<path fill="#86e0d1" style="fill: var(--color1, #86e0d1)" d="M20.18 8.505c0 1.353-1.097 2.45-2.45 2.45s-2.45-1.097-2.45-2.45c0-1.353 1.097-2.45 2.45-2.45s2.45 1.097 2.45 2.45z"></path>
<path fill="none" stroke="#86e0d1" style="stroke: var(--color1, #86e0d1)" stroke-linejoin="miter" stroke-linecap="round" stroke-miterlimit="4" stroke-width="0.9312" d="M19.1 15.462l-0.758 0.407 11.586 6.324c-2.413 5.358-7.799 9.087-14.055 9.087-8.509 0-15.407-6.898-15.407-15.407s6.898-15.407 15.407-15.407c6.287 0 11.695 3.765 14.090 9.165l-10.863 5.832z"></path>
</symbol>
<symbol id="icon-tetris" viewBox="0 0 48 32">
<path fill="none" stroke="#86e0d1" style="stroke: var(--color1, #86e0d1)" stroke-linejoin="miter" stroke-linecap="butt" stroke-miterlimit="4" stroke-width="2.461" d="M0.189 15.758h15.725c0.105 0 0.189 0.085 0.189 0.189v15.725c0 0.105-0.085 0.189-0.189 0.189h-15.725c-0.105 0-0.189-0.085-0.189-0.189v-15.725c0-0.105 0.085-0.189 0.189-0.189z"></path>
<path fill="none" stroke="#86e0d1" style="stroke: var(--color1, #86e0d1)" stroke-linejoin="miter" stroke-linecap="butt" stroke-miterlimit="4" stroke-width="2.461" d="M15.947 15.758h15.725c0.105 0 0.189 0.085 0.189 0.189v15.725c0 0.105-0.085 0.189-0.189 0.189h-15.725c-0.105 0-0.189-0.085-0.189-0.189v-15.725c0-0.105 0.085-0.189 0.189-0.189z"></path>
<path fill="none" stroke="#86e0d1" style="stroke: var(--color1, #86e0d1)" stroke-linejoin="miter" stroke-linecap="butt" stroke-miterlimit="4" stroke-width="2.461" d="M31.705 15.758h15.725c0.105 0 0.189 0.085 0.189 0.189v15.725c0 0.105-0.085 0.189-0.189 0.189h-15.725c-0.105 0-0.189-0.085-0.189-0.189v-15.725c0-0.105 0.085-0.189 0.189-0.189z"></path>
<path fill="none" stroke="#86e0d1" style="stroke: var(--color1, #86e0d1)" stroke-linejoin="miter" stroke-linecap="butt" stroke-miterlimit="4" stroke-width="2.461" d="M15.947 0h15.725c0.105 0 0.189 0.085 0.189 0.189v15.725c0 0.105-0.085 0.189-0.189 0.189h-15.725c-0.105 0-0.189-0.085-0.189-0.189v-15.725c0-0.105 0.085-0.189 0.189-0.189z"></path>
</symbol>
<symbol id="icon-2048" viewBox="0 0 32 32">
<path fill="#86e0d1" style="fill: var(--color1, #86e0d1)" d="M11.326 13.751c0.162 0 0.297 0.059 0.405 0.178 0.108 0.108 0.162 0.243 0.162 0.405 0 0.151-0.054 0.281-0.162 0.389s-0.243 0.162-0.405 0.162h-5.124c-0.205 0-0.373-0.065-0.503-0.195s-0.195-0.292-0.195-0.486c0-0.465 0.13-0.886 0.389-1.265s0.584-0.724 0.973-1.038c0.389-0.324 0.816-0.627 1.281-0.908s0.892-0.562 1.281-0.843c0.4-0.281 0.73-0.573 0.989-0.876s0.389-0.605 0.389-0.908-0.038-0.551-0.114-0.746c-0.076-0.205-0.195-0.378-0.357-0.519-0.357-0.324-0.903-0.486-1.638-0.486-0.789 0-1.546 0.162-2.27 0.486-0.086 0.043-0.189 0.065-0.308 0.065-0.108 0-0.211-0.049-0.308-0.146-0.087-0.097-0.13-0.238-0.13-0.422s0.092-0.33 0.276-0.438c0.897-0.454 1.886-0.681 2.967-0.681 0.865 0 1.584 0.249 2.156 0.746 0.594 0.497 0.892 1.146 0.892 1.946s-0.405 1.578-1.216 2.335c-0.357 0.324-0.746 0.627-1.167 0.908-0.411 0.27-0.811 0.54-1.2 0.811-0.389 0.26-0.74 0.514-1.054 0.762s-0.524 0.503-0.632 0.762h4.621z"></path>
<path fill="#86e0d1" style="fill: var(--color1, #86e0d1)" d="M23.72 5.482c0.594 0 1.113 0.114 1.556 0.34 0.454 0.227 0.827 0.557 1.119 0.989 0.605 0.832 0.908 1.978 0.908 3.437 0 1.47-0.303 2.621-0.908 3.454-0.638 0.876-1.535 1.313-2.692 1.313s-2.054-0.438-2.692-1.313c-0.605-0.832-0.908-1.983-0.908-3.454 0-1.459 0.303-2.605 0.908-3.437 0.638-0.886 1.54-1.33 2.708-1.33zM23.72 13.897c0.778 0 1.367-0.33 1.767-0.989 0.411-0.649 0.616-1.535 0.616-2.659s-0.205-2.011-0.616-2.659c-0.411-0.659-1.011-0.984-1.8-0.973-0.778 0-1.367 0.33-1.767 0.989-0.4 0.649-0.6 1.53-0.6 2.643 0 1.135 0.2 2.021 0.6 2.659 0.422 0.659 1.021 0.989 1.8 0.989z"></path>
<path fill="#86e0d1" style="fill: var(--color1, #86e0d1)" d="M12.136 25.376c0.151 0 0.281 0.054 0.389 0.162 0.108 0.097 0.162 0.222 0.162 0.373s-0.054 0.281-0.162 0.389c-0.097 0.097-0.227 0.146-0.389 0.146h-1.005v1.8c0 0.162-0.060 0.303-0.178 0.422s-0.265 0.178-0.438 0.178c-0.162 0-0.303-0.059-0.422-0.178-0.108-0.119-0.162-0.259-0.162-0.422v-1.8h-4.053c-0.216 0-0.4-0.070-0.551-0.211-0.141-0.151-0.211-0.335-0.211-0.551v-0.113c0-0.195 0.049-0.357 0.146-0.486l4.167-5.318c0.151-0.216 0.378-0.324 0.681-0.324h0.259c0.238 0 0.422 0.076 0.551 0.227 0.14 0.151 0.211 0.335 0.211 0.551v5.156h1.005zM9.93 25.376v-4.556l-3.535 4.556h3.535z"></path>
<path fill="#86e0d1" style="fill: var(--color1, #86e0d1)" d="M26.817 21.809c0 0.27-0.043 0.514-0.13 0.73-0.076 0.205-0.189 0.395-0.34 0.567-0.27 0.314-0.627 0.551-1.070 0.713 0.595 0.205 1.070 0.508 1.427 0.908 0.367 0.389 0.551 0.924 0.551 1.605 0 0.703-0.259 1.281-0.778 1.735-0.638 0.573-1.557 0.854-2.756 0.843-1.2 0-2.124-0.281-2.773-0.843-0.519-0.454-0.784-1.027-0.795-1.719 0-0.692 0.184-1.232 0.551-1.621 0.368-0.4 0.849-0.703 1.443-0.908-0.713-0.249-1.184-0.676-1.411-1.281-0.086-0.227-0.13-0.47-0.13-0.73s0.049-0.53 0.146-0.811c0.108-0.292 0.287-0.562 0.535-0.811 0.562-0.54 1.373-0.811 2.432-0.811s1.859 0.27 2.4 0.811c0.465 0.454 0.697 0.994 0.697 1.621zM23.72 27.841c0.8 0 1.405-0.2 1.816-0.6 0.335-0.314 0.503-0.638 0.503-0.973 0.011-0.346-0.049-0.632-0.178-0.859s-0.308-0.411-0.535-0.551c-0.422-0.303-0.957-0.454-1.605-0.454s-1.189 0.151-1.621 0.454c-0.476 0.324-0.719 0.767-0.73 1.329 0 0.389 0.167 0.74 0.503 1.054 0.432 0.4 1.049 0.6 1.848 0.6zM23.72 23.301c0.659 0 1.151-0.162 1.475-0.486 0.281-0.27 0.416-0.589 0.405-0.957 0-0.378-0.157-0.708-0.47-0.989-0.303-0.281-0.773-0.422-1.411-0.422-0.649 0-1.13 0.14-1.443 0.422s-0.47 0.611-0.47 0.989c0 0.378 0.151 0.713 0.454 1.005 0.314 0.292 0.8 0.438 1.459 0.438z"></path>
<path fill="none" stroke="#86e0d1" style="stroke: var(--color1, #86e0d1)" stroke-linejoin="miter" stroke-linecap="butt" stroke-miterlimit="4" stroke-width="0.935" d="M1.015 23.706v-6.283h14.551v14.117h-6.717c-4.327 0-7.834-3.508-7.834-7.834zM15.566 16.488h-14.551v-7.151c0-4.327 3.508-7.834 7.834-7.834h6.717v14.985zM16.501 31.54v-14.117h14.551v6.283c0 4.327-3.508 7.834-7.834 7.834h-6.717zM31.052 16.488h-14.551v-14.985h6.717c4.327 0 7.834 3.508 7.834 7.834v7.151z"></path>
</symbol>
<symbol id="icon-untitled" viewBox="0 0 32 32">
<path d="M21.964 25.952l-17.465-9.844c-0.012-0.007-0.012-0.024-0-0.032l17.258-10.203c0.012-0.007 0.027 0.001 0.028 0.016l0.207 20.047c0 0.014-0.015 0.023-0.027 0.016z"></path>
<path d="M31.667 15.819l-14.603 7.521c-0.005 0.003-0.012 0.003-0.017-0l-12.585-7.198c-0.012-0.007-0.012-0.025-0-0.032l12.585-7.277c0.005-0.003 0.012-0.003 0.017-0.001l14.602 6.953c0.014 0.006 0.014 0.026 0 0.033z"></path>
<path d="M26.062 10.091l-9.844 17.465c-0.007 0.012-0.024 0.012-0.032 0l-10.203-17.258c-0.007-0.012 0.001-0.027 0.016-0.028l20.047-0.207c0.014-0 0.023 0.015 0.016 0.027z"></path>
<path d="M15.891 0.388l7.521 14.603c0.003 0.005 0.003 0.012-0 0.017l-7.197 12.585c-0.007 0.012-0.025 0.012-0.032 0l-7.277-12.585c-0.003-0.005-0.003-0.012-0.001-0.017l6.953-14.602c0.007-0.014 0.026-0.014 0.033-0.001z"></path>
<path d="M10.2 6.030l17.465 9.844c0.012 0.007 0.012 0.024 0 0.032l-17.258 10.203c-0.012 0.007-0.027-0.001-0.027-0.015l-0.207-20.047c-0-0.014 0.015-0.023 0.027-0.016z"></path>
<path d="M0.498 16.163l14.603-7.521c0.005-0.003 0.012-0.003 0.017 0l12.585 7.198c0.012 0.007 0.012 0.025 0 0.032l-12.585 7.277c-0.005 0.003-0.012 0.003-0.017 0.001l-14.602-6.953c-0.014-0.006-0.014-0.026-0.001-0.033z"></path>
<path d="M6.102 21.891l9.844-17.465c0.007-0.012 0.024-0.012 0.032-0l10.203 17.258c0.007 0.012-0.001 0.027-0.016 0.027l-20.047 0.207c-0.014 0-0.023-0.015-0.016-0.027z"></path>
<path d="M16.273 31.594l-7.521-14.603c-0.003-0.006-0.003-0.012 0-0.017l7.198-12.585c0.007-0.012 0.025-0.012 0.032-0l7.277 12.585c0.003 0.005 0.003 0.012 0.001 0.017l-6.953 14.602c-0.006 0.014-0.026 0.014-0.033 0z"></path>
</symbol>
</defs>
</svg>

