
<svg id="logo" viewBox="0 0 103 104" fill="none" xmlns="http://www.w3.org/2000/svg">
  <rect x="-0.000244141" y="0.743286" width="102.631" height="102.631" rx="51.3155" fill="#141629" />
  <path d="M50.321 16.0986C50.7059 15.432 51.6681 15.432 52.053 16.0986L82.8736 69.4815C83.2585 70.1482 82.7774 70.9815 82.0076 70.9815H20.3664C19.5966 70.9815 19.1154 70.1482 19.5003 69.4815L50.321 16.0986Z" fill="#FDE9D5" />
  <path d="M50.321 16.0986C50.7059 15.432 51.6681 15.432 52.053 16.0986L82.8736 69.4815C83.2585 70.1482 82.7774 70.9815 82.0076 70.9815H20.3664C19.5966 70.9815 19.1154 70.1482 19.5003 69.4815L50.321 16.0986Z" stroke="black" />
  <path d="M51.187 14.5987L83.7397 70.9816H18.6343L51.187 14.5987Z" fill="#D2F5EF" />
  <path d="M51.187 14.5987L83.7397 70.9816H18.6343L51.187 14.5987Z" stroke="black" />
  <path d="M87.2759 51.3212C87.9425 51.7061 87.9425 52.6684 87.2759 53.0533L33.893 83.8739C33.2263 84.2588 32.393 83.7777 32.393 83.0079L32.393 21.3666C32.393 20.5968 33.2263 20.1157 33.893 20.5006L87.2759 51.3212Z" fill="#86E0D1" />
  <path d="M81.9064 33.4514C82.6762 33.4514 83.1573 34.2847 82.7724 34.9514L52.053 88.1588C51.6681 88.8255 50.7059 88.8255 50.321 88.1588L19.6017 34.9514C19.2168 34.2847 19.6979 33.4514 20.4677 33.4514L81.9064 33.4514Z" fill="#D2F5EF" />
  <path d="M68.4231 20.6018C69.0897 20.2169 69.9231 20.6981 69.9231 21.4679L69.9231 82.9065C69.9231 83.6763 69.0897 84.1574 68.4231 83.7725L15.2156 53.0532C14.549 52.6683 14.549 51.7061 15.2156 51.3212L68.4231 20.6018Z" fill="#86E0D1" />
  <path d="M51.3152 26.4011L73.5355 64.8877H29.095L51.3152 26.4011Z" fill="#86E0D1" />
</svg>