<svg viewBox="0 0 875 877" fill="none" xmlns="http://www.w3.org/2000/svg">
  <g opacity="0.05">
    <path d="M599.532 710.723C599.536 711.107 599.122 711.352 598.787 711.163L119.867 441.211C119.532 441.022 119.527 440.541 119.858 440.345L593.103 160.565C593.435 160.369 593.854 160.605 593.858 160.99L599.532 710.723Z" fill="white" stroke="white" />
    <path d="M464.426 241.719L464.641 241.268L464.426 241.719L864.84 432.395C865.214 432.573 865.222 433.101 864.854 433.291L464.42 639.536C464.269 639.614 464.09 639.61 463.943 639.526L118.848 442.156C118.513 441.965 118.512 441.482 118.846 441.289L463.961 241.738C464.103 241.655 464.277 241.648 464.426 241.719Z" fill="white" stroke="white" />
    <path d="M710.724 275.468C711.109 275.464 711.354 275.878 711.165 276.213L441.212 755.133C441.023 755.469 440.542 755.473 440.346 755.142L160.566 281.897C160.37 281.565 160.606 281.146 160.991 281.142L710.724 275.468Z" fill="white" stroke="white" />
    <path d="M240.697 410.574L240.246 410.359L240.697 410.574L431.372 10.1594C431.55 9.7859 432.079 9.77765 432.268 10.1454L638.514 410.58C638.592 410.731 638.588 410.91 638.504 411.057L441.134 756.152C440.942 756.487 440.46 756.488 440.267 756.154L240.716 411.039C240.633 410.897 240.626 410.723 240.697 410.574Z" fill="white" stroke="white" />
    <path d="M275.468 165.299C275.464 164.914 275.878 164.669 276.213 164.858L755.133 434.811C755.469 435 755.473 435.481 755.142 435.677L281.897 715.457C281.565 715.653 281.146 715.417 281.142 715.032L275.468 165.299Z" fill="white" stroke="white" />
    <path d="M410.574 634.303L410.359 634.754L410.574 634.303L10.1595 443.628C9.78602 443.45 9.77776 442.921 10.1455 442.732L410.58 236.486C410.731 236.408 410.91 236.412 411.057 236.496L756.152 433.866C756.487 434.057 756.488 434.54 756.154 434.733L411.039 634.284C410.897 634.367 410.723 634.374 410.574 634.303Z" fill="white" stroke="white" />
    <path d="M164.276 600.554C163.891 600.558 163.646 600.144 163.835 599.808L433.788 120.888C433.977 120.553 434.458 120.548 434.654 120.879L714.434 594.125C714.63 594.456 714.394 594.875 714.009 594.879L164.276 600.554Z" fill="white" stroke="white" />
    <path d="M634.304 465.448L634.756 465.663L634.304 465.448L443.629 865.862C443.451 866.236 442.923 866.244 442.733 865.876L236.487 465.442C236.41 465.291 236.414 465.111 236.498 464.964L433.868 119.869C434.059 119.535 434.541 119.534 434.734 119.867L634.286 464.982C634.368 465.125 634.375 465.299 634.304 465.448Z" fill="white" stroke="white" />
  </g>
</svg>