<svg aria-hidden="true" style="position: absolute; width: 0; height: 0; overflow: hidden;" version="1.1" xmlns="http://www.w3.org/2000/svg" xmlns:xlink="http://www.w3.org/1999/xlink">
<defs>
<symbol id="icon-gamepad" viewBox="0 0 31 32">
<path fill="none" stroke="#fff" style="stroke: var(--color1, #fff)" stroke-linejoin="miter" stroke-linecap="round" stroke-miterlimit="4" stroke-width="1.0608" d="M15.606 28.773c1.16 0 1.657 0 2.32 0.663 1.856 1.856 5.47 2.155 6.63 1.657 11.271-4.807 3.978-15.58 0-15.58h-7.672M16.884 15.514h-1.823c-0.183 0-0.332-0.148-0.332-0.332v-1.326c0-0.183 0.148-0.332 0.332-0.332h0.746M16.884 15.514v-1.657c0-0.183-0.148-0.332-0.331-0.332h-0.746M15.807 13.525c0-2.32 0.615-3.481-4.392-3.149-1.823 0-1.658-2.983 0-2.983 3.353 0 7.254 0 8.785 0 0.994 0 2.155-3.149 0-3.149h-2.983c-0.497 0-1.249-0.066-1.409-3.646"></path>
<path fill="none" stroke="#fff" style="stroke: var(--color1, #fff)" stroke-linejoin="miter" stroke-linecap="round" stroke-miterlimit="4" stroke-width="1.0608" d="M15.606 15.514h-8.95c-3.978 0-11.271 10.774 0 15.58 1.16 0.497 4.773 0.199 6.63-1.657 0.663-0.663 1.16-0.663 2.32-0.663"></path>
<path fill="#86e0d1" style="fill: var(--color2, #86e0d1)" d="M23.182 28.11c0.915 0 1.657-0.742 1.657-1.657s-0.742-1.657-1.657-1.657c-0.915 0-1.657 0.742-1.657 1.657s0.742 1.657 1.657 1.657zM28.486 23.138c0 0.915-0.742 1.657-1.657 1.657s-1.657-0.742-1.657-1.657c0-0.915 0.742-1.657 1.657-1.657s1.657 0.742 1.657 1.657zM24.84 19.823c0 0.915-0.742 1.657-1.657 1.657s-1.657-0.742-1.657-1.657c0-0.915 0.742-1.657 1.657-1.657s1.657 0.742 1.657 1.657zM21.193 23.138c0 0.915-0.742 1.657-1.657 1.657s-1.657-0.742-1.657-1.657c0-0.915 0.742-1.657 1.657-1.657s1.657 0.742 1.657 1.657zM9.923 21.481c0 0.183 0.148 0.331 0.332 0.331h1.989c0.183 0 0.332 0.148 0.332 0.331v2.32c0 0.183-0.148 0.331-0.332 0.331h-1.989c-0.183 0-0.332 0.148-0.332 0.331v1.989c0 0.183-0.148 0.331-0.332 0.331h-2.32c-0.183 0-0.332-0.148-0.332-0.331v-1.989c0-0.183-0.148-0.331-0.332-0.331h-1.989c-0.183 0-0.332-0.148-0.332-0.331v-2.32c0-0.183 0.148-0.331 0.332-0.331h1.989c0.183 0 0.332-0.148 0.332-0.331v-1.989c0-0.183 0.148-0.331 0.332-0.331h2.32c0.183 0 0.332 0.148 0.332 0.331v1.989z"></path>
<path fill="#fff" style="fill: var(--color1, #fff)" d="M6.939 27.116v0zM6.939 25.127v0zM6.939 21.481v0zM6.939 19.492v0zM25.171 26.453c0 1.098-0.891 1.989-1.989 1.989v-0.663c0.732 0 1.326-0.594 1.326-1.326h0.663zM23.182 24.464c1.098 0 1.989 0.891 1.989 1.989h-0.663c0-0.732-0.594-1.326-1.326-1.326v-0.663zM21.193 26.453c0-1.098 0.891-1.989 1.989-1.989v0.663c-0.732 0-1.326 0.594-1.326 1.326h-0.663zM23.182 28.442c-1.098 0-1.989-0.891-1.989-1.989h0.663c0 0.732 0.594 1.326 1.326 1.326v0.663zM26.829 24.464c0.732 0 1.326-0.594 1.326-1.326h0.663c0 1.098-0.891 1.989-1.989 1.989v-0.663zM25.503 23.138c0 0.732 0.594 1.326 1.326 1.326v0.663c-1.098 0-1.989-0.891-1.989-1.989h0.663zM26.829 21.812c-0.732 0-1.326 0.594-1.326 1.326h-0.663c0-1.098 0.891-1.989 1.989-1.989v0.663zM28.155 23.138c0-0.732-0.594-1.326-1.326-1.326v-0.663c1.098 0 1.989 0.891 1.989 1.989h-0.663zM23.182 21.149c0.732 0 1.326-0.594 1.326-1.326h0.663c0 1.098-0.891 1.989-1.989 1.989v-0.663zM21.856 19.823c0 0.732 0.594 1.326 1.326 1.326v0.663c-1.098 0-1.989-0.891-1.989-1.989h0.663zM23.182 18.497c-0.732 0-1.326 0.594-1.326 1.326h-0.663c0-1.098 0.891-1.989 1.989-1.989v0.663zM24.508 19.823c0-0.732-0.594-1.326-1.326-1.326v-0.663c1.098 0 1.989 0.891 1.989 1.989h-0.663zM19.536 24.464c0.732 0 1.326-0.594 1.326-1.326h0.663c0 1.098-0.891 1.989-1.989 1.989v-0.663zM18.21 23.138c0 0.732 0.594 1.326 1.326 1.326v0.663c-1.098 0-1.989-0.891-1.989-1.989h0.663zM19.536 21.812c-0.732 0-1.326 0.594-1.326 1.326h-0.663c0-1.098 0.891-1.989 1.989-1.989v0.663zM20.862 23.138c0-0.732-0.594-1.326-1.326-1.326v-0.663c1.098 0 1.989 0.891 1.989 1.989h-0.663zM10.254 22.144c-0.366 0-0.663-0.297-0.663-0.663h0.663v0.663zM12.243 22.144h-1.989v-0.663h1.989v0.663zM12.243 22.144v-0.663c0.366 0 0.663 0.297 0.663 0.663h-0.663zM12.243 24.464v-2.32h0.663v2.32h-0.663zM12.243 24.464h0.663c0 0.366-0.297 0.663-0.663 0.663v-0.663zM10.254 24.464h1.989v0.663h-1.989v-0.663zM9.591 25.127c0-0.366 0.297-0.663 0.663-0.663v0.663h-0.663zM9.591 27.116v-1.989h0.663v1.989h-0.663zM9.591 27.116h0.663c0 0.366-0.297 0.663-0.663 0.663v-0.663zM7.271 27.116h2.32v0.663h-2.32v-0.663zM7.271 27.116v0.663c-0.366 0-0.663-0.297-0.663-0.663h0.663zM7.271 25.127v1.989h-0.663v-1.989h0.663zM6.608 24.464c0.366 0 0.663 0.297 0.663 0.663h-0.663v-0.663zM4.619 24.464h1.989v0.663h-1.989v-0.663zM4.619 24.464v0 0.663c-0.366 0-0.663-0.297-0.663-0.663h0.663zM4.619 22.144v2.32h-0.663v-2.32h0.663zM4.619 22.144h-0.663c0-0.366 0.297-0.663 0.663-0.663v0.663zM6.608 22.144h-1.989v-0.663h1.989v0.663zM7.271 21.481c0 0.366-0.297 0.663-0.663 0.663v-0.663h0.663zM7.271 19.492v1.989h-0.663v-1.989h0.663zM7.271 19.492h-0.663c0-0.366 0.297-0.663 0.663-0.663v0.663zM9.591 19.492h-2.32v-0.663h2.32v0.663zM9.591 19.492v-0.663c0.366 0 0.663 0.297 0.663 0.663h-0.663zM9.591 21.481v-1.989h0.663v1.989h-0.663z"></path>
</symbol>
<symbol id="icon-cup" viewBox="0 0 26 32">
<path fill="none" stroke="#fff" style="stroke: var(--color1, #fff)" stroke-linejoin="round" stroke-linecap="round" stroke-miterlimit="4" stroke-width="1.2" d="M13.143 0.7h7.5c0.045 0.686 0.059 1.499 0.028 2.4M18.243 14.8c-1.139 2.263-3.9 5.1-5.1 5.1v3.3h6.9v4.5M18.243 14.8c1.843-3.662 2.319-8.526 2.428-11.7M18.243 14.8c5.282-3.3 12.3-11.1 2.428-11.7M20.043 27.7h1.5v3.6h-8.4M20.043 27.7h-6.9"></path>
<path fill="none" stroke="#fff" style="stroke: var(--color1, #fff)" stroke-linejoin="round" stroke-linecap="round" stroke-miterlimit="4" stroke-width="1.2" d="M13.143 0.7h-7.5c-0.045 0.686-0.059 1.499-0.028 2.4M8.043 14.8c1.139 2.263 3.9 5.1 5.1 5.1v3.3h-6.9v4.5M8.043 14.8c-1.843-3.662-2.319-8.526-2.428-11.7M8.043 14.8c-5.282-3.3-12.3-11.1-2.428-11.7M6.243 27.7h-1.5v3.6h8.4M6.243 27.7h6.9"></path>
</symbol>
<symbol id="icon-tesseract" viewBox="0 0 32 32">
<path fill="none" stroke="#fff" style="stroke: var(--color1, #fff)" stroke-linejoin="miter" stroke-linecap="round" stroke-miterlimit="4" stroke-width="1" d="M0.5 4.75h31M2.5 2.75h0.75M25.75 2.75h3.75M8 2.75h0.75M5.25 2.75h0.75"></path>
<path fill="none" stroke="#fff" style="stroke: var(--color1, #fff)" stroke-linejoin="miter" stroke-linecap="butt" stroke-miterlimit="4" stroke-width="1" d="M2.5 0.5h27c1.105 0 2 0.895 2 2v27c0 1.105-0.895 2-2 2h-27c-1.105 0-2-0.895-2-2v-27c0-1.105 0.895-2 2-2z"></path>
<path fill="none" stroke="#fff" style="stroke: var(--color1, #fff)" stroke-linejoin="miter" stroke-linecap="butt" stroke-miterlimit="4" stroke-width="1" d="M23.25 7.25h5.75v5.75h-2.5v-2.25c0-0.552-0.448-1-1-1h-2.25v-2.5z"></path>
<path fill="none" stroke="#fff" style="stroke: var(--color1, #fff)" stroke-linejoin="miter" stroke-linecap="butt" stroke-miterlimit="4" stroke-width="1" d="M3 13.25v-6h5.75v2.75h-2.25c-0.552 0-1 0.448-1 1v2.25h-2.5z"></path>
<path fill="none" stroke="#fff" style="stroke: var(--color1, #fff)" stroke-linejoin="miter" stroke-linecap="butt" stroke-miterlimit="4" stroke-width="1" d="M8.875 28.875h-6v-5.75h2.75v2.25c0 0.552 0.448 1 1 1h2.25v2.5z"></path>
<path fill="none" stroke="#fff" style="stroke: var(--color1, #fff)" stroke-linejoin="miter" stroke-linecap="butt" stroke-miterlimit="4" stroke-width="1" d="M28.875 23v6h-5.75v-2.75h2.25c0.552 0 1-0.448 1-1v-2.25h2.5z"></path>
<path fill="none" stroke="#86e0d1" style="stroke: var(--color2, #86e0d1)" stroke-linejoin="miter" stroke-linecap="butt" stroke-miterlimit="4" stroke-width="1" d="M16 25.361v-6.83c0-0.175 0.091-0.337 0.241-0.427l6-3.643c0.333-0.202 0.759 0.038 0.759 0.427v6.83c0 0.175-0.091 0.337-0.241 0.427l-6 3.643c-0.333 0.202-0.759-0.038-0.759-0.427z"></path>
<path fill="none" stroke="#86e0d1" style="stroke: var(--color2, #86e0d1)" stroke-linejoin="miter" stroke-linecap="butt" stroke-miterlimit="4" stroke-width="1" d="M9.769 14.476l5.915 3.415c0.151 0.087 0.246 0.247 0.25 0.422l0.155 7.018c0.009 0.39-0.412 0.639-0.75 0.444l-5.915-3.415c-0.151-0.087-0.246-0.247-0.25-0.422l-0.155-7.018c-0.009-0.39 0.412-0.639 0.75-0.444z"></path>
<path fill="none" stroke="#86e0d1" style="stroke: var(--color2, #86e0d1)" stroke-linejoin="miter" stroke-linecap="butt" stroke-miterlimit="4" stroke-width="1" d="M9.769 13.681l5.915-3.415c0.151-0.087 0.337-0.089 0.49-0.005l6.155 3.375c0.342 0.187 0.347 0.677 0.010 0.871l-5.915 3.415c-0.151 0.087-0.337 0.089-0.49 0.005l-6.155-3.375c-0.342-0.187-0.347-0.677-0.010-0.871z"></path>
</symbol>
<symbol id="icon-helmet" viewBox="0 0 46 32">
<path fill="none" stroke="#fff" style="stroke: var(--color1, #fff)" stroke-linejoin="miter" stroke-linecap="round" stroke-miterlimit="4" stroke-width="1.3714" d="M27.6 4.457c2.060 0.328 4.929 1.4 7.543 3.551M41.657 25.029c0.486-8.582-2.748-13.922-6.514-17.021M41.657 25.029h-18.857M41.657 25.029c4.114 0 4.114 6.171 0 6.171-3.84 0-14.171 0-18.857 0M35.143 8.008v10.507M22.8 0.686h1.124c1.064 0 2.248 0.162 2.8 1.072 0.904 1.491 0.461 2.479 1.904 9.899"></path>
<path fill="none" stroke="#fff" style="stroke: var(--color1, #fff)" stroke-linejoin="miter" stroke-linecap="round" stroke-miterlimit="4" stroke-width="1.3714" d="M18 4.457c-2.060 0.328-4.93 1.4-7.543 3.551M3.943 25.029c-0.486-8.582 2.748-13.922 6.514-17.021M3.943 25.029h18.857M3.943 25.029c-4.114 0-4.114 6.171 0 6.171 3.84 0 14.171 0 18.857 0M10.457 8.008v10.507M22.8 0.686h-1.124c-1.065 0-2.249 0.162-2.8 1.072-0.904 1.491-0.461 2.479-1.904 9.899"></path>
<path fill="#86e0d1" style="fill: var(--color2, #86e0d1)" d="M29.44 20.37c0.067 0.167 0.101 0.343 0.101 0.527 0 0.167-0.084 0.343-0.251 0.527-0.151 0.184-0.41 0.276-0.779 0.276-0.352 0-0.611-0.193-0.778-0.578l-1.331-3.189h-7.006l-1.306 3.189c-0.167 0.385-0.435 0.578-0.804 0.578-0.352 0-0.611-0.092-0.778-0.276-0.151-0.184-0.226-0.36-0.226-0.527 0-0.184 0.033-0.36 0.1-0.527l5.223-12.38c0.234-0.569 0.636-0.854 1.205-0.854h0.201c0.552 0 0.954 0.285 1.206 0.854l5.223 12.38zM25.698 16.226l-2.787-6.705-2.787 6.705h5.575z"></path>
</symbol>
<symbol id="icon-about-us" viewBox="0 0 59 32">
<path fill="none" stroke="#fff" style="stroke: var(--color1, #fff)" stroke-linejoin="miter" stroke-linecap="round" stroke-miterlimit="4" stroke-width="0.7786" d="M51.958 16h6.852"></path>
<path fill="none" stroke="#fff" style="stroke: var(--color1, #fff)" stroke-linejoin="miter" stroke-linecap="round" stroke-miterlimit="4" stroke-width="0.7786" d="M0.389 15.922l47.572 0.078"></path>
<path fill="none" stroke="#fff" style="stroke: var(--color1, #fff)" stroke-linejoin="miter" stroke-linecap="round" stroke-miterlimit="4" stroke-width="0.7786" d="M0.389 23.786h32.857M37.139 23.786h21.645"></path>
<path fill="none" stroke="#fff" style="stroke: var(--color1, #fff)" stroke-linejoin="miter" stroke-linecap="round" stroke-miterlimit="4" stroke-width="0.7786" d="M0.389 0.428h58.394"></path>
<path fill="none" stroke="#fff" style="stroke: var(--color1, #fff)" stroke-linejoin="miter" stroke-linecap="round" stroke-miterlimit="4" stroke-width="0.7786" d="M0.389 31.572h58.394"></path>
<path fill="none" stroke="#fff" style="stroke: var(--color1, #fff)" stroke-linejoin="miter" stroke-linecap="round" stroke-miterlimit="4" stroke-width="0.7786" d="M0.389 8.221h23.513M27.796 8.221h31.027"></path>
</symbol>
<symbol id="icon-burger" viewBox="0 0 42 32">
<path fill="none" stroke="#fff" style="stroke: var(--color1, #fff)" stroke-linejoin="miter" stroke-linecap="round" stroke-miterlimit="4" stroke-width="2.7674" d="M1.837 1.384h38.547"></path>
<path fill="none" stroke="#fff" style="stroke: var(--color1, #fff)" stroke-linejoin="miter" stroke-linecap="round" stroke-miterlimit="4" stroke-width="2.7674" d="M1.837 16.209h38.547"></path>
<path fill="none" stroke="#fff" style="stroke: var(--color1, #fff)" stroke-linejoin="miter" stroke-linecap="round" stroke-miterlimit="4" stroke-width="2.7674" d="M1.837 30.047h38.547"></path>
</symbol>
<symbol id="icon-logo" viewBox="0 0 32 32">
<path fill="#d2f5ef" style="fill: var(--color3, #d2f5ef)" d="M15.729 4.72c0.12-0.208 0.421-0.208 0.541 0l9.634 16.686c0.12 0.208-0.030 0.469-0.271 0.469h-19.268c-0.241 0-0.391-0.26-0.271-0.469l9.634-16.686z"></path>
<path fill="#86e0d1" style="fill: var(--color2, #86e0d1)" d="M27.28 15.729c0.208 0.12 0.208 0.421 0 0.541l-16.686 9.634c-0.208 0.12-0.469-0.030-0.469-0.271v-19.268c0-0.241 0.26-0.391 0.469-0.271l16.686 9.634z"></path>
<path fill="#d2f5ef" style="fill: var(--color3, #d2f5ef)" d="M25.602 10.144c0.241 0 0.391 0.26 0.271 0.469l-9.602 16.632c-0.12 0.208-0.421 0.208-0.541 0l-9.602-16.632c-0.12-0.208 0.030-0.469 0.271-0.469h19.204z"></path>
<path fill="#86e0d1" style="fill: var(--color2, #86e0d1)" d="M21.388 6.127c0.208-0.12 0.469 0.030 0.469 0.271v19.204c0 0.241-0.26 0.391-0.469 0.271l-16.631-9.602c-0.208-0.12-0.208-0.421 0-0.541l16.631-9.602z"></path>
<path fill="#86e0d1" style="fill: var(--color2, #86e0d1)" d="M16.040 7.94l6.946 12.030h-13.891l6.946-12.030z"></path>
</symbol>
</defs>
</svg>

