<svg aria-hidden="true" style="position: absolute; width: 0; height: 0; overflow: hidden;" version="1.1" xmlns="http://www.w3.org/2000/svg" xmlns:xlink="http://www.w3.org/1999/xlink">
<defs>
<symbol id="icon-gamepad" viewBox="0 0 31 32">
<path fill="none" stroke="#fff" style="stroke: var(--color1, #fff)" stroke-linejoin="miter" stroke-linecap="round" stroke-miterlimit="4" stroke-width="1.0608" d="M15.606 28.773c1.16 0 1.657 0 2.32 0.663 1.856 1.856 5.47 2.155 6.63 1.657 11.271-4.807 3.978-15.58 0-15.58h-7.672M16.884 15.514h-1.823c-0.183 0-0.332-0.148-0.332-0.332v-1.326c0-0.183 0.148-0.332 0.332-0.332h0.746M16.884 15.514v-1.657c0-0.183-0.148-0.332-0.331-0.332h-0.746M15.807 13.525c0-2.32 0.615-3.481-4.392-3.149-1.823 0-1.658-2.983 0-2.983 3.353 0 7.254 0 8.785 0 0.994 0 2.155-3.149 0-3.149h-2.983c-0.497 0-1.249-0.066-1.409-3.646"></path>
<path fill="none" stroke="#fff" style="stroke: var(--color1, #fff)" stroke-linejoin="miter" stroke-linecap="round" stroke-miterlimit="4" stroke-width="1.0608" d="M15.606 15.514h-8.95c-3.978 0-11.271 10.774 0 15.58 1.16 0.497 4.773 0.199 6.63-1.657 0.663-0.663 1.16-0.663 2.32-0.663"></path>
<path fill="#86e0d1" style="fill: var(--color2, #86e0d1)" d="M23.182 28.11c0.915 0 1.657-0.742 1.657-1.657s-0.742-1.657-1.657-1.657c-0.915 0-1.657 0.742-1.657 1.657s0.742 1.657 1.657 1.657zM28.486 23.138c0 0.915-0.742 1.657-1.657 1.657s-1.657-0.742-1.657-1.657c0-0.915 0.742-1.657 1.657-1.657s1.657 0.742 1.657 1.657zM24.84 19.823c0 0.915-0.742 1.657-1.657 1.657s-1.657-0.742-1.657-1.657c0-0.915 0.742-1.657 1.657-1.657s1.657 0.742 1.657 1.657zM21.193 23.138c0 0.915-0.742 1.657-1.657 1.657s-1.657-0.742-1.657-1.657c0-0.915 0.742-1.657 1.657-1.657s1.657 0.742 1.657 1.657zM9.923 21.481c0 0.183 0.148 0.331 0.332 0.331h1.989c0.183 0 0.332 0.148 0.332 0.331v2.32c0 0.183-0.148 0.331-0.332 0.331h-1.989c-0.183 0-0.332 0.148-0.332 0.331v1.989c0 0.183-0.148 0.331-0.332 0.331h-2.32c-0.183 0-0.332-0.148-0.332-0.331v-1.989c0-0.183-0.148-0.331-0.332-0.331h-1.989c-0.183 0-0.332-0.148-0.332-0.331v-2.32c0-0.183 0.148-0.331 0.332-0.331h1.989c0.183 0 0.332-0.148 0.332-0.331v-1.989c0-0.183 0.148-0.331 0.332-0.331h2.32c0.183 0 0.332 0.148 0.332 0.331v1.989z"></path>
<path fill="#fff" style="fill: var(--color1, #fff)" d="M6.939 27.116v0zM6.939 25.127v0zM6.939 21.481v0zM6.939 19.492v0zM25.171 26.453c0 1.098-0.891 1.989-1.989 1.989v-0.663c0.732 0 1.326-0.594 1.326-1.326h0.663zM23.182 24.464c1.098 0 1.989 0.891 1.989 1.989h-0.663c0-0.732-0.594-1.326-1.326-1.326v-0.663zM21.193 26.453c0-1.098 0.891-1.989 1.989-1.989v0.663c-0.732 0-1.326 0.594-1.326 1.326h-0.663zM23.182 28.442c-1.098 0-1.989-0.891-1.989-1.989h0.663c0 0.732 0.594 1.326 1.326 1.326v0.663zM26.829 24.464c0.732 0 1.326-0.594 1.326-1.326h0.663c0 1.098-0.891 1.989-1.989 1.989v-0.663zM25.503 23.138c0 0.732 0.594 1.326 1.326 1.326v0.663c-1.098 0-1.989-0.891-1.989-1.989h0.663zM26.829 21.812c-0.732 0-1.326 0.594-1.326 1.326h-0.663c0-1.098 0.891-1.989 1.989-1.989v0.663zM28.155 23.138c0-0.732-0.594-1.326-1.326-1.326v-0.663c1.098 0 1.989 0.891 1.989 1.989h-0.663zM23.182 21.149c0.732 0 1.326-0.594 1.326-1.326h0.663c0 1.098-0.891 1.989-1.989 1.989v-0.663zM21.856 19.823c0 0.732 0.594 1.326 1.326 1.326v0.663c-1.098 0-1.989-0.891-1.989-1.989h0.663zM23.182 18.497c-0.732 0-1.326 0.594-1.326 1.326h-0.663c0-1.098 0.891-1.989 1.989-1.989v0.663zM24.508 19.823c0-0.732-0.594-1.326-1.326-1.326v-0.663c1.098 0 1.989 0.891 1.989 1.989h-0.663zM19.536 24.464c0.732 0 1.326-0.594 1.326-1.326h0.663c0 1.098-0.891 1.989-1.989 1.989v-0.663zM18.21 23.138c0 0.732 0.594 1.326 1.326 1.326v0.663c-1.098 0-1.989-0.891-1.989-1.989h0.663zM19.536 21.812c-0.732 0-1.326 0.594-1.326 1.326h-0.663c0-1.098 0.891-1.989 1.989-1.989v0.663zM20.862 23.138c0-0.732-0.594-1.326-1.326-1.326v-0.663c1.098 0 1.989 0.891 1.989 1.989h-0.663zM10.254 22.144c-0.366 0-0.663-0.297-0.663-0.663h0.663v0.663zM12.243 22.144h-1.989v-0.663h1.989v0.663zM12.243 22.144v-0.663c0.366 0 0.663 0.297 0.663 0.663h-0.663zM12.243 24.464v-2.32h0.663v2.32h-0.663zM12.243 24.464h0.663c0 0.366-0.297 0.663-0.663 0.663v-0.663zM10.254 24.464h1.989v0.663h-1.989v-0.663zM9.591 25.127c0-0.366 0.297-0.663 0.663-0.663v0.663h-0.663zM9.591 27.116v-1.989h0.663v1.989h-0.663zM9.591 27.116h0.663c0 0.366-0.297 0.663-0.663 0.663v-0.663zM7.271 27.116h2.32v0.663h-2.32v-0.663zM7.271 27.116v0.663c-0.366 0-0.663-0.297-0.663-0.663h0.663zM7.271 25.127v1.989h-0.663v-1.989h0.663zM6.608 24.464c0.366 0 0.663 0.297 0.663 0.663h-0.663v-0.663zM4.619 24.464h1.989v0.663h-1.989v-0.663zM4.619 24.464v0 0.663c-0.366 0-0.663-0.297-0.663-0.663h0.663zM4.619 22.144v2.32h-0.663v-2.32h0.663zM4.619 22.144h-0.663c0-0.366 0.297-0.663 0.663-0.663v0.663zM6.608 22.144h-1.989v-0.663h1.989v0.663zM7.271 21.481c0 0.366-0.297 0.663-0.663 0.663v-0.663h0.663zM7.271 19.492v1.989h-0.663v-1.989h0.663zM7.271 19.492h-0.663c0-0.366 0.297-0.663 0.663-0.663v0.663zM9.591 19.492h-2.32v-0.663h2.32v0.663zM9.591 19.492v-0.663c0.366 0 0.663 0.297 0.663 0.663h-0.663zM9.591 21.481v-1.989h0.663v1.989h-0.663z"></path>
</symbol>
<symbol id="icon-cup" viewBox="0 0 26 32">
<path fill="none" stroke="#fff" style="stroke: var(--color1, #fff)" stroke-linejoin="round" stroke-linecap="round" stroke-miterlimit="4" stroke-width="1.2" d="M13.143 0.7h7.5c0.045 0.686 0.059 1.499 0.028 2.4M18.243 14.8c-1.139 2.263-3.9 5.1-5.1 5.1v3.3h6.9v4.5M18.243 14.8c1.843-3.662 2.319-8.526 2.428-11.7M18.243 14.8c5.282-3.3 12.3-11.1 2.428-11.7M20.043 27.7h1.5v3.6h-8.4M20.043 27.7h-6.9"></path>
<path fill="none" stroke="#fff" style="stroke: var(--color1, #fff)" stroke-linejoin="round" stroke-linecap="round" stroke-miterlimit="4" stroke-width="1.2" d="M13.143 0.7h-7.5c-0.045 0.686-0.059 1.499-0.028 2.4M8.043 14.8c1.139 2.263 3.9 5.1 5.1 5.1v3.3h-6.9v4.5M8.043 14.8c-1.843-3.662-2.319-8.526-2.428-11.7M8.043 14.8c-5.282-3.3-12.3-11.1-2.428-11.7M6.243 27.7h-1.5v3.6h8.4M6.243 27.7h6.9"></path>
</symbol>
<symbol id="icon-tesseract" viewBox="0 0 32 32">
<path fill="none" stroke="#fff" style="stroke: var(--color1, #fff)" stroke-linejoin="miter" stroke-linecap="round" stroke-miterlimit="4" stroke-width="1" d="M0.5 4.75h31M2.5 2.75h0.75M25.75 2.75h3.75M8 2.75h0.75M5.25 2.75h0.75"></path>
<path fill="none" stroke="#fff" style="stroke: var(--color1, #fff)" stroke-linejoin="miter" stroke-linecap="butt" stroke-miterlimit="4" stroke-width="1" d="M2.5 0.5h27c1.105 0 2 0.895 2 2v27c0 1.105-0.895 2-2 2h-27c-1.105 0-2-0.895-2-2v-27c0-1.105 0.895-2 2-2z"></path>
<path fill="none" stroke="#fff" style="stroke: var(--color1, #fff)" stroke-linejoin="miter" stroke-linecap="butt" stroke-miterlimit="4" stroke-width="1" d="M23.25 7.25h5.75v5.75h-2.5v-2.25c0-0.552-0.448-1-1-1h-2.25v-2.5z"></path>
<path fill="none" stroke="#fff" style="stroke: var(--color1, #fff)" stroke-linejoin="miter" stroke-linecap="butt" stroke-miterlimit="4" stroke-width="1" d="M3 13.25v-6h5.75v2.75h-2.25c-0.552 0-1 0.448-1 1v2.25h-2.5z"></path>
<path fill="none" stroke="#fff" style="stroke: var(--color1, #fff)" stroke-linejoin="miter" stroke-linecap="butt" stroke-miterlimit="4" stroke-width="1" d="M8.875 28.875h-6v-5.75h2.75v2.25c0 0.552 0.448 1 1 1h2.25v2.5z"></path>
<path fill="none" stroke="#fff" style="stroke: var(--color1, #fff)" stroke-linejoin="miter" stroke-linecap="butt" stroke-miterlimit="4" stroke-width="1" d="M28.875 23v6h-5.75v-2.75h2.25c0.552 0 1-0.448 1-1v-2.25h2.5z"></path>
<path fill="none" stroke="#86e0d1" style="stroke: var(--color2, #86e0d1)" stroke-linejoin="miter" stroke-linecap="butt" stroke-miterlimit="4" stroke-width="1" d="M16 25.361v-6.83c0-0.175 0.091-0.337 0.241-0.427l6-3.643c0.333-0.202 0.759 0.038 0.759 0.427v6.83c0 0.175-0.091 0.337-0.241 0.427l-6 3.643c-0.333 0.202-0.759-0.038-0.759-0.427z"></path>
<path fill="none" stroke="#86e0d1" style="stroke: var(--color2, #86e0d1)" stroke-linejoin="miter" stroke-linecap="butt" stroke-miterlimit="4" stroke-width="1" d="M9.769 14.476l5.915 3.415c0.151 0.087 0.246 0.247 0.25 0.422l0.155 7.018c0.009 0.39-0.412 0.639-0.75 0.444l-5.915-3.415c-0.151-0.087-0.246-0.247-0.25-0.422l-0.155-7.018c-0.009-0.39 0.412-0.639 0.75-0.444z"></path>
<path fill="none" stroke="#86e0d1" style="stroke: var(--color2, #86e0d1)" stroke-linejoin="miter" stroke-linecap="butt" stroke-miterlimit="4" stroke-width="1" d="M9.769 13.681l5.915-3.415c0.151-0.087 0.337-0.089 0.49-0.005l6.155 3.375c0.342 0.187 0.347 0.677 0.010 0.871l-5.915 3.415c-0.151 0.087-0.337 0.089-0.49 0.005l-6.155-3.375c-0.342-0.187-0.347-0.677-0.010-0.871z"></path>
</symbol>
<symbol id="icon-helmet" viewBox="0 0 46 32">
<path fill="none" stroke="#fff" style="stroke: var(--color1, #fff)" stroke-linejoin="miter" stroke-linecap="round" stroke-miterlimit="4" stroke-width="1.3714" d="M27.6 4.457c2.060 0.328 4.929 1.4 7.543 3.551M41.657 25.029c0.486-8.582-2.748-13.922-6.514-17.021M41.657 25.029h-18.857M41.657 25.029c4.114 0 4.114 6.171 0 6.171-3.84 0-14.171 0-18.857 0M35.143 8.008v10.507M22.8 0.686h1.124c1.064 0 2.248 0.162 2.8 1.072 0.904 1.491 0.461 2.479 1.904 9.899"></path>
<path fill="none" stroke="#fff" style="stroke: var(--color1, #fff)" stroke-linejoin="miter" stroke-linecap="round" stroke-miterlimit="4" stroke-width="1.3714" d="M18 4.457c-2.060 0.328-4.93 1.4-7.543 3.551M3.943 25.029c-0.486-8.582 2.748-13.922 6.514-17.021M3.943 25.029h18.857M3.943 25.029c-4.114 0-4.114 6.171 0 6.171 3.84 0 14.171 0 18.857 0M10.457 8.008v10.507M22.8 0.686h-1.124c-1.065 0-2.249 0.162-2.8 1.072-0.904 1.491-0.461 2.479-1.904 9.899"></path>
<path fill="#86e0d1" style="fill: var(--color2, #86e0d1)" d="M29.44 20.37c0.067 0.167 0.101 0.343 0.101 0.527 0 0.167-0.084 0.343-0.251 0.527-0.151 0.184-0.41 0.276-0.779 0.276-0.352 0-0.611-0.193-0.778-0.578l-1.331-3.189h-7.006l-1.306 3.189c-0.167 0.385-0.435 0.578-0.804 0.578-0.352 0-0.611-0.092-0.778-0.276-0.151-0.184-0.226-0.36-0.226-0.527 0-0.184 0.033-0.36 0.1-0.527l5.223-12.38c0.234-0.569 0.636-0.854 1.205-0.854h0.201c0.552 0 0.954 0.285 1.206 0.854l5.223 12.38zM25.698 16.226l-2.787-6.705-2.787 6.705h5.575z"></path>
</symbol>
<symbol id="icon-about-us" viewBox="0 0 59 32">
<path fill="none" stroke="#fff" style="stroke: var(--color1, #fff)" stroke-linejoin="miter" stroke-linecap="round" stroke-miterlimit="4" stroke-width="0.7786" d="M51.958 16h6.852"></path>
<path fill="none" stroke="#fff" style="stroke: var(--color1, #fff)" stroke-linejoin="miter" stroke-linecap="round" stroke-miterlimit="4" stroke-width="0.7786" d="M0.389 15.922l47.572 0.078"></path>
<path fill="none" stroke="#fff" style="stroke: var(--color1, #fff)" stroke-linejoin="miter" stroke-linecap="round" stroke-miterlimit="4" stroke-width="0.7786" d="M0.389 23.786h32.857M37.139 23.786h21.645"></path>
<path fill="none" stroke="#fff" style="stroke: var(--color1, #fff)" stroke-linejoin="miter" stroke-linecap="round" stroke-miterlimit="4" stroke-width="0.7786" d="M0.389 0.428h58.394"></path>
<path fill="none" stroke="#fff" style="stroke: var(--color1, #fff)" stroke-linejoin="miter" stroke-linecap="round" stroke-miterlimit="4" stroke-width="0.7786" d="M0.389 31.572h58.394"></path>
<path fill="none" stroke="#fff" style="stroke: var(--color1, #fff)" stroke-linejoin="miter" stroke-linecap="round" stroke-miterlimit="4" stroke-width="0.7786" d="M0.389 8.221h23.513M27.796 8.221h31.027"></path>
</symbol>
<symbol id="icon-logo" viewBox="0 0 32 32">
<path fill="#d2f5ef" style="fill: var(--color1, #d2f5ef)" d="M15.729 4.72c0.12-0.208 0.421-0.208 0.541 0l9.634 16.686c0.12 0.208-0.030 0.469-0.271 0.469h-19.268c-0.241 0-0.391-0.26-0.271-0.469l9.634-16.686z"></path>
<path fill="#86e0d1" style="fill: var(--color2, #86e0d1)" d="M27.28 15.729c0.208 0.12 0.208 0.421 0 0.541l-16.686 9.634c-0.208 0.12-0.469-0.030-0.469-0.271v-19.268c0-0.241 0.26-0.391 0.469-0.271l16.686 9.634z"></path>
<path fill="#d2f5ef" style="fill: var(--color1, #d2f5ef)" d="M25.602 10.144c0.241 0 0.391 0.26 0.271 0.469l-9.602 16.632c-0.12 0.208-0.421 0.208-0.541 0l-9.602-16.632c-0.12-0.208 0.030-0.469 0.271-0.469h19.204z"></path>
<path fill="#86e0d1" style="fill: var(--color2, #86e0d1)" d="M21.388 6.127c0.208-0.12 0.469 0.030 0.469 0.271v19.204c0 0.241-0.26 0.391-0.469 0.271l-16.631-9.602c-0.208-0.12-0.208-0.421 0-0.541l16.631-9.602z"></path>
<path fill="#86e0d1" style="fill: var(--color2, #86e0d1)" d="M16.040 7.94l6.946 12.030h-13.891l6.946-12.030z"></path>
</symbol>
<symbol id="icon-bird" viewBox="0 0 37 32">
<path fill="none" stroke="#86e0d1" style="stroke: var(--color1, #86e0d1)" stroke-linejoin="miter" stroke-linecap="round" stroke-miterlimit="4" stroke-width="1.0890" d="M18.592 13.61c0-4.356-0.381-13 6.534-13 4.238 0 6.017 3.255 6.602 6.772M18.592 13.61h8.78c-0.272 2.949-2.409 8.848-8.78 8.848s-8.644-5.899-8.984-8.848M18.592 13.61h-8.984M5.184 13.61h4.424M5.184 13.61h-4.628M5.184 13.61c0.188 4.208 2.729 12.182 11.162 12.962M31.728 7.383c0.37 2.222 0.337 4.459 0.272 6.227-0.136 3.743-2.82 11.386-11.502 12.798M31.728 7.383h4.764M20.498 26.408c-0.605 0.098-1.239 0.167-1.906 0.202-0.791 0.042-1.539 0.027-2.246-0.038M20.498 26.408v5.035M20.498 31.442h4.628M20.498 31.442h-4.152v-4.871"></path>
<path fill="#86e0d1" style="fill: var(--color1, #86e0d1)" d="M28.461 5.034c0 0.639-0.518 1.157-1.157 1.157s-1.157-0.518-1.157-1.157c0-0.639 0.518-1.157 1.157-1.157s1.157 0.518 1.157 1.157z"></path>
</symbol>
<symbol id="icon-pacman" viewBox="0 0 31 32">
<path fill="#86e0d1" style="fill: var(--color1, #86e0d1)" d="M20.18 8.505c0 1.353-1.097 2.45-2.45 2.45s-2.45-1.097-2.45-2.45c0-1.353 1.097-2.45 2.45-2.45s2.45 1.097 2.45 2.45z"></path>
<path fill="none" stroke="#86e0d1" style="stroke: var(--color1, #86e0d1)" stroke-linejoin="miter" stroke-linecap="round" stroke-miterlimit="4" stroke-width="0.9312" d="M19.1 15.462l-0.758 0.407 11.586 6.324c-2.413 5.358-7.799 9.087-14.055 9.087-8.509 0-15.407-6.898-15.407-15.407s6.898-15.407 15.407-15.407c6.287 0 11.695 3.765 14.090 9.165l-10.863 5.832z"></path>
</symbol>
<symbol id="icon-tetris" viewBox="0 0 48 32">
<path fill="none" stroke="#86e0d1" style="stroke: var(--color1, #86e0d1)" stroke-linejoin="miter" stroke-linecap="butt" stroke-miterlimit="4" stroke-width="2.3758" d="M1.044 16.293h15.181c0.101 0 0.183 0.082 0.183 0.183v15.181c0 0.101-0.082 0.183-0.183 0.183h-15.181c-0.101 0-0.183-0.082-0.183-0.183v-15.181c0-0.101 0.082-0.183 0.183-0.183z"></path>
<path fill="none" stroke="#86e0d1" style="stroke: var(--color1, #86e0d1)" stroke-linejoin="miter" stroke-linecap="butt" stroke-miterlimit="4" stroke-width="2.3758" d="M16.256 16.293h15.181c0.101 0 0.183 0.082 0.183 0.183v15.181c0 0.101-0.082 0.183-0.183 0.183h-15.181c-0.101 0-0.183-0.082-0.183-0.183v-15.181c0-0.101 0.082-0.183 0.183-0.183z"></path>
<path fill="none" stroke="#86e0d1" style="stroke: var(--color1, #86e0d1)" stroke-linejoin="miter" stroke-linecap="butt" stroke-miterlimit="4" stroke-width="2.3758" d="M31.468 16.293h15.181c0.101 0 0.183 0.082 0.183 0.183v15.181c0 0.101-0.082 0.183-0.183 0.183h-15.181c-0.101 0-0.183-0.082-0.183-0.183v-15.181c0-0.101 0.082-0.183 0.183-0.183z"></path>
<path fill="none" stroke="#86e0d1" style="stroke: var(--color1, #86e0d1)" stroke-linejoin="miter" stroke-linecap="butt" stroke-miterlimit="4" stroke-width="2.3758" d="M16.256 1.082h15.181c0.101 0 0.183 0.082 0.183 0.183v15.181c0 0.101-0.082 0.183-0.183 0.183h-15.181c-0.101 0-0.183-0.082-0.183-0.183v-15.181c0-0.101 0.082-0.183 0.183-0.183z"></path>
</symbol>
<symbol id="icon-2048" viewBox="0 0 32 32">
<path fill="none" stroke="#86e0d1" style="stroke: var(--color1, #86e0d1)" stroke-linejoin="miter" stroke-linecap="butt" stroke-miterlimit="4" stroke-width="0.966" d="M0.483 8.577c0-4.47 3.624-8.094 8.094-8.094h14.846c4.47 0 8.094 3.624 8.094 8.094v14.846c0 4.47-3.624 8.094-8.094 8.094h-14.846c-4.47 0-8.094-3.624-8.094-8.094v-14.846z"></path>
<path fill="#86e0d1" style="fill: var(--color1, #86e0d1)" d="M11.137 12.883c0.168 0 0.307 0.061 0.419 0.184 0.112 0.112 0.168 0.251 0.168 0.419 0 0.156-0.056 0.29-0.168 0.402s-0.251 0.168-0.419 0.168h-5.294c-0.212 0-0.385-0.067-0.519-0.201s-0.201-0.302-0.201-0.503c0-0.48 0.134-0.916 0.402-1.307s0.603-0.748 1.005-1.072c0.402-0.335 0.843-0.648 1.323-0.938s0.921-0.581 1.323-0.871c0.413-0.29 0.754-0.592 1.022-0.905s0.402-0.625 0.402-0.938c0-0.313-0.039-0.57-0.117-0.771-0.078-0.212-0.201-0.391-0.369-0.536-0.369-0.335-0.933-0.503-1.692-0.503-0.815 0-1.597 0.168-2.345 0.503-0.089 0.045-0.195 0.067-0.318 0.067-0.112 0-0.218-0.050-0.318-0.151-0.089-0.101-0.134-0.246-0.134-0.436s0.095-0.341 0.285-0.452c0.927-0.469 1.949-0.704 3.066-0.704 0.893 0 1.636 0.257 2.228 0.771 0.614 0.514 0.921 1.184 0.921 2.010s-0.419 1.631-1.256 2.412c-0.369 0.335-0.771 0.648-1.206 0.938-0.424 0.279-0.838 0.558-1.24 0.838-0.402 0.268-0.765 0.53-1.089 0.787s-0.542 0.519-0.653 0.787h4.774z"></path>
<path fill="#86e0d1" style="fill: var(--color1, #86e0d1)" d="M23.942 4.34c0.614 0 1.15 0.117 1.608 0.352 0.469 0.235 0.854 0.575 1.156 1.022 0.625 0.86 0.938 2.044 0.938 3.551 0 1.519-0.313 2.708-0.938 3.568-0.659 0.905-1.586 1.357-2.781 1.357s-2.122-0.452-2.781-1.357c-0.625-0.86-0.938-2.049-0.938-3.568 0-1.508 0.313-2.691 0.938-3.551 0.659-0.916 1.591-1.374 2.798-1.374zM23.942 13.034c0.804 0 1.413-0.341 1.826-1.022 0.424-0.67 0.637-1.586 0.637-2.747s-0.212-2.077-0.637-2.747c-0.424-0.681-1.044-1.016-1.859-1.005-0.804 0-1.413 0.341-1.826 1.022-0.413 0.67-0.62 1.58-0.62 2.731 0 1.173 0.207 2.088 0.62 2.747 0.436 0.681 1.055 1.022 1.859 1.022z"></path>
<path fill="#86e0d1" style="fill: var(--color1, #86e0d1)" d="M11.973 24.893c0.156 0 0.29 0.056 0.402 0.168 0.112 0.101 0.168 0.229 0.168 0.385s-0.056 0.29-0.168 0.402c-0.101 0.101-0.235 0.151-0.402 0.151h-1.039v1.859c0 0.168-0.061 0.313-0.184 0.436s-0.274 0.184-0.452 0.184c-0.168 0-0.313-0.061-0.436-0.184-0.112-0.123-0.168-0.268-0.168-0.436v-1.859h-4.188c-0.223 0-0.413-0.073-0.57-0.218-0.145-0.156-0.218-0.346-0.218-0.57v-0.117c0-0.201 0.050-0.369 0.151-0.503l4.305-5.495c0.156-0.223 0.391-0.335 0.704-0.335h0.268c0.246 0 0.436 0.078 0.57 0.235 0.145 0.156 0.218 0.346 0.218 0.57v5.327h1.039zM9.695 24.893v-4.707l-3.652 4.707h3.652z"></path>
<path fill="#86e0d1" style="fill: var(--color1, #86e0d1)" d="M27.142 21.208c0 0.279-0.045 0.53-0.134 0.754-0.078 0.212-0.195 0.408-0.352 0.586-0.279 0.324-0.648 0.57-1.106 0.737 0.614 0.212 1.106 0.525 1.474 0.938 0.38 0.402 0.57 0.955 0.57 1.658 0 0.726-0.268 1.323-0.804 1.792-0.659 0.592-1.608 0.882-2.848 0.871-1.24 0-2.195-0.29-2.865-0.871-0.536-0.469-0.81-1.061-0.821-1.776 0-0.715 0.19-1.273 0.57-1.675 0.38-0.413 0.877-0.726 1.491-0.938-0.737-0.257-1.223-0.698-1.457-1.323-0.089-0.235-0.134-0.486-0.134-0.754s0.050-0.547 0.151-0.838c0.112-0.302 0.296-0.581 0.553-0.838 0.581-0.558 1.418-0.838 2.513-0.838s1.921 0.279 2.479 0.838c0.48 0.469 0.72 1.027 0.72 1.675zM23.942 27.44c0.826 0 1.452-0.207 1.876-0.62 0.346-0.324 0.519-0.659 0.519-1.005 0.011-0.357-0.050-0.653-0.184-0.888s-0.318-0.424-0.553-0.57c-0.436-0.313-0.988-0.469-1.658-0.469s-1.228 0.156-1.675 0.469c-0.491 0.335-0.743 0.793-0.754 1.374 0 0.402 0.173 0.765 0.519 1.089 0.447 0.413 1.083 0.62 1.91 0.62zM23.942 22.749c0.681 0 1.189-0.168 1.524-0.503 0.29-0.279 0.43-0.609 0.419-0.988 0-0.391-0.162-0.732-0.486-1.022-0.313-0.29-0.799-0.436-1.457-0.436-0.67 0-1.167 0.145-1.491 0.436s-0.486 0.631-0.486 1.022c0 0.391 0.156 0.737 0.469 1.039 0.324 0.302 0.826 0.452 1.508 0.452z"></path>
</symbol>
</defs>
</svg>

